<svg width="56" height="56" viewBox="0 0 56 56" fill="none" xmlns="http://www.w3.org/2000/svg">
<path d="M45.602 29.4631C45.6028 29.3771 45.6138 29.2915 45.6348 29.2081C45.7796 28.7101 46.0536 28.259 46.4292 27.9001C46.6859 27.6492 47.0178 27.4885 47.3745 27.4423C47.4548 27.4297 47.5339 27.41 47.6108 27.3835V25.6569C42.8448 25.6046 38.092 25.5785 33.3457 25.5392C33.2761 26.1214 33.2761 26.7097 33.3457 27.2919H33.4573C34.1985 27.2482 34.9424 27.2833 35.6762 27.3965C36.2046 27.4689 36.7145 27.6397 37.1795 27.9001C37.4641 28.0579 37.6994 28.2911 37.8593 28.5739C38.0192 28.8567 38.0975 29.178 38.0854 29.5024V42.1373C38.0887 42.6294 37.9903 43.1169 37.7966 43.5695C37.6696 43.9533 37.4166 44.2834 37.0784 44.5064C36.7402 44.7295 36.3364 44.8325 35.9322 44.799L31.7964 44.7009C31.2066 44.6999 30.6172 44.6694 30.0305 44.6094C28.1869 44.3407 26.3958 43.7915 24.7196 42.9809C21.8955 41.6689 19.564 39.4951 18.063 36.7746C17.9777 36.6177 17.8792 36.4607 17.7807 36.3038C16.3551 33.9703 15.5444 31.3158 15.424 28.5868C15.3593 27.3751 15.4297 26.1599 15.6341 24.9637C15.9448 23.0646 16.554 21.2262 17.4394 19.5161C18.6003 17.3054 20.2832 15.4089 22.3432 13.9899C24.899 12.2041 27.8706 11.0988 30.9758 10.7788C32.2825 10.6216 33.6002 10.5757 34.9146 10.6415C35.0656 10.6415 35.2232 10.6415 35.3742 10.6415C35.4509 10.6495 35.5284 10.6381 35.5995 10.6084C35.6706 10.5786 35.7331 10.5316 35.7812 10.4715C36.1488 10.0529 36.5296 9.6409 36.8972 9.22235C36.956 9.15284 37.0087 9.07845 37.0547 9H36.6543C33.2406 9 29.8204 9 26.4002 9C25.7156 9.0021 25.0318 9.04359 24.352 9.12426C22.5466 9.34075 20.7796 9.80285 19.1002 10.4976C15.9688 11.7494 13.28 13.8978 11.3736 16.6712C10.1432 18.4912 9.23092 20.5056 8.67546 22.629C8.31674 23.7984 8.09643 25.0056 8.01899 26.2259C7.94761 27.929 8.07761 29.6345 8.40631 31.3074C9.2587 35.9643 11.8448 40.1289 15.6472 42.9679C16.4472 43.6075 17.3093 44.1662 18.2206 44.6355C19.5291 45.2716 20.8938 45.7861 22.2973 46.1724C23.4836 46.5129 24.7127 46.6825 25.9472 46.676C30.1552 46.676 34.3698 46.676 38.5778 46.676H47.2104H47.5846V44.9298L47.5123 44.8971L47.2892 44.8382C46.8408 44.7244 46.4353 44.4834 46.1218 44.1444C45.8084 43.8054 45.6004 43.3831 45.5232 42.9286C45.4685 42.6178 45.4465 42.3022 45.4576 41.9869C45.4576 40.0249 45.497 38.0238 45.5167 36.0422L45.5757 29.4631" fill="white"/>
<path d="M44.8341 20.8105C44.926 20.3461 44.9063 13.9371 44.8341 13.6167C44.5124 13.5578 37.8623 13.5709 37.6457 13.6167C37.5669 14.0679 37.5866 20.562 37.6457 20.8105C38.0593 20.8759 44.5846 20.8562 44.8669 20.8105" fill="white"/>
</svg>
