<svg width="198" height="38" viewBox="0 0 198 38" fill="none" xmlns="http://www.w3.org/2000/svg">
<path d="M37.602 20.4631C37.6028 20.3771 37.6138 20.2915 37.6348 20.2081C37.7796 19.7101 38.0536 19.259 38.4292 18.9001C38.6859 18.6492 39.0178 18.4885 39.3745 18.4423C39.4548 18.4297 39.5339 18.41 39.6108 18.3835V16.6569C34.8448 16.6046 30.092 16.5785 25.3457 16.5392C25.2761 17.1214 25.2761 17.7097 25.3457 18.2919H25.4573C26.1985 18.2482 26.9424 18.2833 27.6762 18.3965C28.2046 18.4689 28.7145 18.6397 29.1795 18.9001C29.4641 19.0579 29.6994 19.2911 29.8593 19.5739C30.0192 19.8567 30.0975 20.178 30.0854 20.5024V33.1373C30.0887 33.6294 29.9903 34.1169 29.7966 34.5695C29.6696 34.9533 29.4166 35.2834 29.0784 35.5064C28.7402 35.7295 28.3364 35.8325 27.9322 35.799L23.7964 35.7009C23.2066 35.6999 22.6172 35.6694 22.0305 35.6094C20.1869 35.3407 18.3958 34.7915 16.7196 33.9809C13.8955 32.6689 11.564 30.4951 10.063 27.7746C9.97766 27.6177 9.8792 27.4607 9.78073 27.3038C8.35508 24.9703 7.54441 22.3158 7.424 19.5868C7.35928 18.3751 7.42973 17.1599 7.63407 15.9637C7.94479 14.0646 8.55403 12.2262 9.43937 10.5161C10.6003 8.30535 12.2832 6.40886 14.3432 4.98989C16.899 3.20413 19.8706 2.0988 22.9758 1.77883C24.2825 1.62161 25.6002 1.57568 26.9146 1.6415C27.0656 1.6415 27.2232 1.6415 27.3742 1.6415C27.4509 1.64947 27.5284 1.63807 27.5995 1.60835C27.6706 1.57864 27.7331 1.53155 27.7812 1.47146C28.1488 1.05291 28.5296 0.640901 28.8972 0.222352C28.956 0.152839 29.0087 0.0784527 29.0547 0H28.6543C25.2406 0 21.8204 0 18.4002 0C17.7156 0.00209803 17.0318 0.0435876 16.352 0.124258C14.5466 0.34075 12.7796 0.802846 11.1002 1.49763C7.96876 2.74942 5.27995 4.89776 3.37355 7.67122C2.14316 9.49125 1.23092 11.5056 0.675465 13.629C0.316744 14.7984 0.0964257 16.0056 0.0189929 17.2259C-0.0523917 18.929 0.0776056 20.6345 0.406309 22.3074C1.2587 26.9643 3.8448 31.1289 7.64719 33.9679C8.44724 34.6075 9.3093 35.1662 10.2206 35.6355C11.5291 36.2716 12.8938 36.7861 14.2973 37.1724C15.4836 37.5129 16.7127 37.6825 17.9472 37.676C22.1552 37.676 26.3698 37.676 30.5778 37.676H39.2104H39.5845V35.9298L39.5123 35.8971L39.2892 35.8382C38.8408 35.7244 38.4353 35.4834 38.1218 35.1444C37.8084 34.8054 37.6004 34.3831 37.5232 33.9286C37.4685 33.6178 37.4465 33.3022 37.4576 32.9869C37.4576 31.0249 37.497 29.0238 37.5167 27.0422L37.5757 20.4631" fill="currentColor"/>
<path d="M36.8341 11.8105C36.926 11.3461 36.9063 4.93711 36.8341 4.61666C36.5124 4.5578 29.8623 4.57088 29.6457 4.61666C29.5669 5.06791 29.5866 11.562 29.6457 11.8105C30.0593 11.8759 36.5846 11.8562 36.8669 11.8105" fill="currentColor"/>
<path d="M75.456 10.5787C73.9898 9.53231 71.8585 9.01129 69.0619 9.01565H63.3047V31.1072H66.4098V21.6964C67.2798 21.8173 68.1572 21.8785 69.0357 21.8795C71.6616 21.8795 73.7513 21.2626 75.305 20.0287C76.0554 19.4452 76.6566 18.6931 77.0593 17.8338C77.4621 16.9745 77.655 16.0324 77.6223 15.0846C77.6707 14.2127 77.4976 13.3426 77.1189 12.555C76.7402 11.7674 76.1683 11.0877 75.456 10.5787ZM72.8695 19.8456C71.8717 20.8789 70.4296 21.3956 68.5433 21.3956C67.8261 21.4078 67.1099 21.3353 66.4098 21.1797V9.47999H68.6024C70.4931 9.47999 71.9242 10.0054 72.8957 11.0561C73.9299 12.2703 74.4542 13.8351 74.3597 15.4247C74.4634 17.03 73.928 18.6113 72.8695 19.826V19.8456Z" fill="currentColor"/>
<path d="M87.7911 14.6659C86.7551 14.6672 85.753 15.0331 84.9617 15.6992C84.0246 16.4962 83.293 17.5054 82.8282 18.6421V14.6398H82.7034L79.9922 15.4572V31.0874H82.8872V19.525C83.2362 18.7208 83.788 18.0202 84.489 17.4911C85.1202 17.0029 85.8957 16.7362 86.6948 16.7325C87.2729 16.7318 87.8442 16.8568 88.3688 17.0988L89.2222 14.849C88.7542 14.7316 88.2737 14.6701 87.7911 14.6659Z" fill="currentColor"/>
<path d="M97.0797 14.6071C95.9774 14.5747 94.8802 14.7681 93.856 15.1753C92.8318 15.5825 91.9024 16.1949 91.1255 16.9745C90.3333 17.7881 89.7157 18.754 89.3105 19.8131C88.9053 20.8723 88.721 22.0026 88.7687 23.1351C88.7169 24.2404 88.8897 25.3447 89.2766 26.382C89.6635 27.4192 90.2566 28.3679 91.0204 29.1713C91.7765 29.927 92.681 30.5192 93.6772 30.9108C94.6735 31.3024 95.7402 31.485 96.8105 31.4472C97.913 31.4812 99.0107 31.2885 100.035 30.8812C101.06 30.4739 101.989 29.8607 102.765 29.0798C103.554 28.2707 104.17 27.3103 104.575 26.2569C104.98 25.2036 105.166 24.0791 105.121 22.952C105.172 21.8438 104.999 20.7367 104.612 19.6965C104.225 18.6562 103.633 17.7039 102.87 16.8961C102.116 16.1371 101.212 15.5418 100.215 15.1479C99.2187 14.754 98.1511 14.5699 97.0797 14.6071ZM100.644 28.8705C100.284 29.5226 99.755 30.0664 99.1117 30.4449C98.4684 30.8235 97.7349 31.0228 96.9878 31.0221C96.2299 31.0122 95.4885 30.8001 94.8408 30.4079C94.1931 30.0157 93.6628 29.4577 93.305 28.792C92.2782 27.0213 91.7816 24.9948 91.8739 22.952C91.7837 20.9499 92.259 18.9628 93.2459 17.2165C93.5994 16.5564 94.1263 16.0045 94.7704 15.6197C95.4145 15.235 96.1514 15.0319 96.9024 15.0322C98.3992 15.0322 99.6268 15.7799 100.585 17.2754C101.615 19.0614 102.112 21.1035 102.016 23.1612C102.11 25.1615 101.635 27.1475 100.644 28.8901V28.8705Z" fill="currentColor"/>
<path d="M116.058 14.6071C115.03 14.6313 114.019 14.8709 113.091 15.3104C112.162 15.7498 111.337 16.3792 110.668 17.1576V14.6398H110.544L107.773 15.4572V38H110.668V29.7795C111.891 30.8863 113.494 31.4833 115.146 31.4471C116.194 31.4692 117.234 31.2603 118.192 30.8352C119.15 30.4101 120.002 29.7794 120.686 28.9881C122.254 27.3022 123.088 25.0657 123.004 22.7688C123.089 20.6433 122.388 18.5606 121.034 16.9156C120.435 16.1797 119.676 15.5893 118.814 15.1893C117.951 14.7893 117.009 14.5902 116.058 14.6071ZM118.526 28.8116C118.166 29.4637 117.637 30.0075 116.994 30.386C116.351 30.7645 115.617 30.9639 114.87 30.9632C113.962 30.9705 113.077 30.6759 112.356 30.1261C111.594 29.5449 111.009 28.7636 110.668 27.8698V17.9162C112.025 16.3772 113.526 15.6077 115.172 15.6077C115.869 15.6014 116.556 15.7798 117.161 16.1245C117.767 16.4692 118.27 16.9679 118.618 17.5696C119.472 18.8776 119.898 20.7087 119.898 23.0631C119.992 25.0696 119.517 27.0618 118.526 28.8116Z" fill="currentColor"/>
<path d="M139.606 21.8925C139.748 19.9734 139.147 18.0732 137.926 16.5821C137.305 15.9137 136.544 15.391 135.695 15.0517C134.847 14.7124 133.934 14.565 133.022 14.6202C131.922 14.5827 130.826 14.7784 129.808 15.1944C128.789 15.6105 127.871 16.2373 127.114 17.0334C126.332 17.8739 125.725 18.8602 125.327 19.9354C124.929 21.0106 124.749 22.1536 124.796 23.2985C124.707 25.4631 125.473 27.5764 126.93 29.1844C127.625 29.926 128.472 30.5109 129.413 30.9C130.354 31.2891 131.367 31.4734 132.385 31.4406C135.309 31.4406 137.644 30.1065 139.39 27.4382L139.022 27.2224C138.403 28.1273 137.571 28.8681 136.6 29.3806C135.688 29.8715 134.669 30.1319 133.633 30.1392C132.824 30.1543 132.024 29.9757 131.3 29.6183C130.576 29.2609 129.948 28.7353 129.471 28.0857C128.407 26.7254 127.875 24.8158 127.875 22.4287V21.8859L139.606 21.8925ZM129.49 16.8045C129.851 16.2677 130.34 15.8281 130.912 15.5246C131.485 15.2211 132.124 15.0632 132.773 15.0649C133.392 15.0539 134.004 15.2098 134.542 15.5159C135.081 15.8221 135.526 16.2672 135.832 16.8045C136.625 18.1935 136.971 19.7913 136.823 21.3823H127.934C128.014 19.7417 128.553 18.1561 129.49 16.8045Z" fill="currentColor"/>
<path d="M147.104 15.6992C146.169 16.4981 145.437 17.5067 144.97 18.6421V14.6398H144.852L142.141 15.4572V31.0874H145.029V19.525C145.378 18.7208 145.93 18.0202 146.631 17.4911C147.263 17.0038 148.038 16.7372 148.837 16.7325C149.417 16.7325 149.99 16.8574 150.517 17.0988L151.364 14.849C150.896 14.7316 150.416 14.6701 149.933 14.6659C148.897 14.6683 147.895 15.0341 147.104 15.6992Z" fill="currentColor"/>
<path d="M159.648 30.4138C158.591 30.4138 157.909 30.0933 157.607 29.4459C157.313 28.7439 157.168 27.9892 157.18 27.2289V15.6403H161.992L162.386 14.9863H157.18V9.82642H157.055L154.16 14.9863L151.941 15.1368V15.6534H154.285V27.3074C154.285 30.0759 155.598 31.4602 158.224 31.4602C159.757 31.42 161.243 30.9235 162.491 30.0345L162.248 29.6682C161.464 30.1441 160.566 30.4016 159.648 30.4138Z" fill="currentColor"/>
<path d="M165.518 7.96633L163.447 10.0292L165.518 12.092L167.589 10.0292L165.518 7.96633Z" fill="currentColor"/>
<path d="M164.094 15.4572V31.0874H166.956V14.6398H166.831L164.094 15.4572Z" fill="currentColor"/>
<path d="M184.522 21.8925C184.664 19.9734 184.063 18.0732 182.842 16.5821C182.221 15.9137 181.46 15.391 180.611 15.0517C179.763 14.7124 178.85 14.565 177.938 14.6202C176.838 14.5827 175.742 14.7784 174.724 15.1944C173.705 15.6105 172.787 16.2373 172.03 17.0334C171.248 17.8739 170.641 18.8602 170.243 19.9354C169.845 21.0106 169.665 22.1536 169.712 23.2985C169.625 25.4627 170.391 27.5749 171.846 29.1844C172.542 29.9253 173.389 30.5098 174.329 30.8988C175.27 31.2879 176.283 31.4726 177.301 31.4406C180.22 31.4406 182.555 30.1065 184.306 27.4382L183.938 27.2224C183.319 28.1273 182.487 28.8681 181.516 29.3806C180.604 29.8715 179.585 30.1319 178.549 30.1392C177.74 30.1543 176.94 29.9757 176.216 29.6183C175.492 29.2609 174.864 28.7353 174.387 28.0857C173.323 26.7254 172.791 24.8158 172.791 22.4287V21.8859L184.522 21.8925ZM174.406 16.8045C174.767 16.2677 175.256 15.8281 175.828 15.5246C176.401 15.2211 177.04 15.0632 177.689 15.0649C178.309 15.0549 178.921 15.211 179.46 15.517C180 15.823 180.446 16.2676 180.754 16.8045C181.542 18.1951 181.886 19.7921 181.739 21.3823H172.844C172.92 19.743 173.454 18.1575 174.387 16.8045H174.406Z" fill="currentColor"/>
<path d="M195.59 22.8014C194.846 22.3766 194.071 22.0072 193.272 21.6962L192.051 21.1795C191.318 20.8952 190.601 20.5699 189.905 20.2051C189.486 19.9659 189.111 19.6586 188.795 19.2961C188.429 18.876 188.232 18.3352 188.244 17.7788C188.239 17.4027 188.321 17.0305 188.482 16.6905C188.644 16.3505 188.881 16.0517 189.176 15.8169C189.895 15.2686 190.786 14.9949 191.69 15.0452C192.653 15.0579 193.603 15.2663 194.483 15.6576C195.362 16.049 196.152 16.615 196.804 17.321L197.231 15.8954C195.624 15.0159 193.812 14.5759 191.979 14.6201C190.511 14.5524 189.064 14.9913 187.883 15.8627C187.388 16.2335 186.989 16.715 186.716 17.2684C186.444 17.8217 186.306 18.4312 186.314 19.0476C186.319 19.8219 186.538 20.58 186.946 21.2387C187.355 21.8974 187.938 22.4312 188.631 22.7818C189.403 23.1974 190.196 23.5728 191.007 23.9066L192.255 24.4233C193.278 24.8127 194.246 25.3314 195.137 25.9667C195.413 26.215 195.635 26.5173 195.788 26.8549C195.942 27.1925 196.024 27.558 196.029 27.9286C196.038 28.3584 195.945 28.7842 195.758 29.1716C195.571 29.559 195.295 29.8972 194.953 30.1587C194.121 30.7691 193.103 31.0741 192.071 31.022C191.003 31.0428 189.944 30.8217 188.974 30.3754C188.004 29.929 187.148 29.2691 186.471 28.4453L186.012 29.9887C186.817 30.4955 187.706 30.8564 188.638 31.0547C189.668 31.312 190.726 31.4438 191.789 31.4471C193.407 31.543 195.008 31.0811 196.325 30.1391C196.858 29.7352 197.288 29.2111 197.579 28.6098C197.87 28.0084 198.014 27.3469 197.999 26.6795C198.004 25.8728 197.781 25.0811 197.354 24.3951C196.928 23.7092 196.317 23.1568 195.59 22.8014Z" fill="currentColor"/>
</svg>
